<mxfile host="app.diagrams.net" modified="2024-01-23T16:42:18.601Z" agent="Mozilla/5.0 (Windows NT 10.0; Win64; x64) AppleWebKit/537.36 (KHTML, like Gecko) Chrome/120.0.0.0 Safari/537.36" etag="rFFJ01RAwT79wA7eEA34" version="22.1.21" type="device" pages="5">
  <diagram name="Pagina-1" id="KPd_LRXaPNbggqQthz7e">
    <mxGraphModel dx="862" dy="422" grid="1" gridSize="10" guides="1" tooltips="1" connect="1" arrows="1" fold="1" page="1" pageScale="1" pageWidth="827" pageHeight="1169" math="0" shadow="0">
      <root>
        <mxCell id="0" />
        <mxCell id="1" parent="0" />
        <mxCell id="gfvDeXCAgYcZ3LxV0Y8O-1" value="" style="rounded=0;whiteSpace=wrap;html=1;" vertex="1" parent="1">
          <mxGeometry x="140" width="680" height="620" as="geometry" />
        </mxCell>
        <mxCell id="gfvDeXCAgYcZ3LxV0Y8O-3" value="INTESTAZIONE&lt;br&gt;(LOGO COFFE HOUSE)&lt;br&gt;" style="rounded=0;whiteSpace=wrap;html=1;" vertex="1" parent="1">
          <mxGeometry x="410" y="90" width="120" height="60" as="geometry" />
        </mxCell>
        <mxCell id="gfvDeXCAgYcZ3LxV0Y8O-4" value="HEADER:(Home, Menu, Chi siamo, Contatti" style="rounded=0;whiteSpace=wrap;html=1;" vertex="1" parent="1">
          <mxGeometry x="410" y="160" width="120" height="60" as="geometry" />
        </mxCell>
        <mxCell id="gfvDeXCAgYcZ3LxV0Y8O-6" value="Benvenuti nella Coffee House" style="rounded=0;whiteSpace=wrap;html=1;" vertex="1" parent="1">
          <mxGeometry x="380" y="10" width="180" height="60" as="geometry" />
        </mxCell>
        <mxCell id="gfvDeXCAgYcZ3LxV0Y8O-7" value="1) Home" style="rounded=0;whiteSpace=wrap;html=1;" vertex="1" parent="1">
          <mxGeometry x="160" y="240" width="120" height="60" as="geometry" />
        </mxCell>
        <mxCell id="gfvDeXCAgYcZ3LxV0Y8O-8" value="2) MenÃ¹" style="rounded=0;whiteSpace=wrap;html=1;" vertex="1" parent="1">
          <mxGeometry x="290" y="240" width="120" height="60" as="geometry" />
        </mxCell>
        <mxCell id="gfvDeXCAgYcZ3LxV0Y8O-9" value="3) Chi siamo" style="rounded=0;whiteSpace=wrap;html=1;" vertex="1" parent="1">
          <mxGeometry x="420" y="240" width="120" height="60" as="geometry" />
        </mxCell>
        <mxCell id="gfvDeXCAgYcZ3LxV0Y8O-10" value="4) Contatti" style="rounded=0;whiteSpace=wrap;html=1;" vertex="1" parent="1">
          <mxGeometry x="550" y="240" width="120" height="60" as="geometry" />
        </mxCell>
        <mxCell id="gfvDeXCAgYcZ3LxV0Y8O-11" value="5) Prenotazioni" style="rounded=0;whiteSpace=wrap;html=1;" vertex="1" parent="1">
          <mxGeometry x="680" y="240" width="120" height="60" as="geometry" />
        </mxCell>
        <mxCell id="gfvDeXCAgYcZ3LxV0Y8O-12" value="SEZIONE: &quot;dai un occhiata al menu&quot;&lt;br&gt;con immagini e presentazioni dei prodotti offerti" style="rounded=0;whiteSpace=wrap;html=1;" vertex="1" parent="1">
          <mxGeometry x="385" y="320" width="190" height="70" as="geometry" />
        </mxCell>
        <mxCell id="gfvDeXCAgYcZ3LxV0Y8O-13" value="1) IMG: &lt;br&gt;cappucino.jpg&lt;br&gt;Descrizione:&lt;br&gt;&lt;div&gt;&lt;br&gt;&lt;/div&gt;" style="rounded=0;whiteSpace=wrap;html=1;" vertex="1" parent="1">
          <mxGeometry x="265" y="410" width="125" height="60" as="geometry" />
        </mxCell>
        <mxCell id="gfvDeXCAgYcZ3LxV0Y8O-14" value="4)IMG:&lt;br&gt;chicchi.jpg&lt;br&gt;Descrizione:&lt;br&gt;" style="rounded=0;whiteSpace=wrap;html=1;" vertex="1" parent="1">
          <mxGeometry x="414" y="480" width="120" height="60" as="geometry" />
        </mxCell>
        <mxCell id="gfvDeXCAgYcZ3LxV0Y8O-15" value="3)IMG:&lt;br&gt;dessert_coffee.jpg&lt;br&gt;Descrizione:" style="rounded=0;whiteSpace=wrap;html=1;" vertex="1" parent="1">
          <mxGeometry x="560" y="410" width="120" height="60" as="geometry" />
        </mxCell>
        <mxCell id="gfvDeXCAgYcZ3LxV0Y8O-16" value="FOOTER" style="rounded=0;whiteSpace=wrap;html=1;" vertex="1" parent="1">
          <mxGeometry x="414" y="555" width="120" height="60" as="geometry" />
        </mxCell>
        <mxCell id="gfvDeXCAgYcZ3LxV0Y8O-17" value="2)IMG:&lt;br&gt;cornetti.jpg&lt;br&gt;Descrizione:" style="rounded=0;whiteSpace=wrap;html=1;" vertex="1" parent="1">
          <mxGeometry x="414" y="410" width="120" height="60" as="geometry" />
        </mxCell>
      </root>
    </mxGraphModel>
  </diagram>
  <diagram id="uL2PBkuNfn83qRQwu3kn" name="Pagina-2">
    <mxGraphModel dx="862" dy="422" grid="1" gridSize="10" guides="1" tooltips="1" connect="1" arrows="1" fold="1" page="1" pageScale="1" pageWidth="827" pageHeight="1169" math="0" shadow="0">
      <root>
        <mxCell id="0" />
        <mxCell id="1" parent="0" />
        <mxCell id="KvObRYr3s44rsyuHJ5Qq-1" value="MENU" style="rounded=0;whiteSpace=wrap;html=1;" vertex="1" parent="1">
          <mxGeometry x="324" y="60" width="180" height="60" as="geometry" />
        </mxCell>
        <mxCell id="Bebcpl-KFybMUtwka1EB-1" value="PRODOTTI OFFERTI DALL&#39;AZIENDA" style="rounded=0;whiteSpace=wrap;html=1;" vertex="1" parent="1">
          <mxGeometry x="344" y="140" width="140" height="50" as="geometry" />
        </mxCell>
        <mxCell id="92syS4XhjCMMaZtBBHwP-1" value="TABELLA O LISTA PER ORGANIZZARE MENU" style="rounded=0;whiteSpace=wrap;html=1;" vertex="1" parent="1">
          <mxGeometry x="350" y="200" width="120" height="60" as="geometry" />
        </mxCell>
        <mxCell id="92syS4XhjCMMaZtBBHwP-2" value="AGGIUNGERE UN IMMAGINE PER CIASCUN PRODOTTO&lt;br&gt;" style="rounded=0;whiteSpace=wrap;html=1;" vertex="1" parent="1">
          <mxGeometry x="350" y="280" width="120" height="60" as="geometry" />
        </mxCell>
        <mxCell id="92syS4XhjCMMaZtBBHwP-4" value="PREZZO PER OGNI PRODOTTO" style="rounded=0;whiteSpace=wrap;html=1;" vertex="1" parent="1">
          <mxGeometry x="350" y="360" width="120" height="60" as="geometry" />
        </mxCell>
      </root>
    </mxGraphModel>
  </diagram>
  <diagram id="0UZ3O2BNDI_V7ztr0amX" name="Pagina-3">
    <mxGraphModel dx="862" dy="422" grid="1" gridSize="10" guides="1" tooltips="1" connect="1" arrows="1" fold="1" page="1" pageScale="1" pageWidth="827" pageHeight="1169" math="0" shadow="0">
      <root>
        <mxCell id="0" />
        <mxCell id="1" parent="0" />
        <mxCell id="WAWmBGEk2iCTViB3cKDd-1" value="CHI SIAMO" style="rounded=0;whiteSpace=wrap;html=1;" vertex="1" parent="1">
          <mxGeometry x="350" y="10" width="120" height="60" as="geometry" />
        </mxCell>
        <mxCell id="WAWmBGEk2iCTViB3cKDd-2" value="RAPPRESENTAZIONE STORIA E AZIENDA E MISSIONE" style="rounded=0;whiteSpace=wrap;html=1;" vertex="1" parent="1">
          <mxGeometry x="350" y="90" width="120" height="60" as="geometry" />
        </mxCell>
        <mxCell id="WAWmBGEk2iCTViB3cKDd-3" value="AGGIUNGERE FOTO TEAM" style="rounded=0;whiteSpace=wrap;html=1;" vertex="1" parent="1">
          <mxGeometry x="350" y="170" width="120" height="60" as="geometry" />
        </mxCell>
      </root>
    </mxGraphModel>
  </diagram>
  <diagram id="WSoNVu9u_D1OcbIhjlW9" name="Pagina-4">
    <mxGraphModel dx="862" dy="422" grid="1" gridSize="10" guides="1" tooltips="1" connect="1" arrows="1" fold="1" page="1" pageScale="1" pageWidth="827" pageHeight="1169" math="0" shadow="0">
      <root>
        <mxCell id="0" />
        <mxCell id="1" parent="0" />
        <mxCell id="cEv7ZcmJpVyMB94tpdar-1" value="CONTATTI" style="rounded=0;whiteSpace=wrap;html=1;" vertex="1" parent="1">
          <mxGeometry x="354" y="10" width="120" height="60" as="geometry" />
        </mxCell>
        <mxCell id="cEv7ZcmJpVyMB94tpdar-2" value="INFORMAZIONI DI CONTATTO CON L&#39;AZIENDA COME INDIRIZZO EMAIL E NUMERO DI TELEFONO" style="rounded=0;whiteSpace=wrap;html=1;" vertex="1" parent="1">
          <mxGeometry x="354" y="100" width="130" height="90" as="geometry" />
        </mxCell>
        <mxCell id="cEv7ZcmJpVyMB94tpdar-3" value="AGGIUNGERE MODULO DI CONTATTI CON CAMPO NOME, EMAIL, OGGETTO E MESSAGGIO" style="rounded=0;whiteSpace=wrap;html=1;" vertex="1" parent="1">
          <mxGeometry x="359" y="210" width="131" height="80" as="geometry" />
        </mxCell>
      </root>
    </mxGraphModel>
  </diagram>
  <diagram id="f5qFG907_8RO9AykQ0m_" name="Pagina-5">
    <mxGraphModel dx="862" dy="422" grid="1" gridSize="10" guides="1" tooltips="1" connect="1" arrows="1" fold="1" page="1" pageScale="1" pageWidth="827" pageHeight="1169" math="0" shadow="0">
      <root>
        <mxCell id="0" />
        <mxCell id="1" parent="0" />
        <mxCell id="0hYNjxqI_YQO2KQrWWd6-1" value="PRENOTAZIONI" style="rounded=0;whiteSpace=wrap;html=1;" vertex="1" parent="1">
          <mxGeometry x="330" y="20" width="120" height="60" as="geometry" />
        </mxCell>
        <mxCell id="0hYNjxqI_YQO2KQrWWd6-2" value="PAGINA PER PRERNOTAZIONI PER EVENTI O TAVOLI" style="rounded=0;whiteSpace=wrap;html=1;" vertex="1" parent="1">
          <mxGeometry x="330" y="100" width="120" height="60" as="geometry" />
        </mxCell>
        <mxCell id="0hYNjxqI_YQO2KQrWWd6-3" value="MODULO PER LA PRENOTAZIONE CON CAMPI PER NOME, NUMERO DI OSPITI, DATA E ORARIO" style="rounded=0;whiteSpace=wrap;html=1;" vertex="1" parent="1">
          <mxGeometry x="330" y="180" width="120" height="80" as="geometry" />
        </mxCell>
      </root>
    </mxGraphModel>
  </diagram>
</mxfile>
